<?xml version="1.0" encoding="utf-8"?>
<!-- Generator: Adobe Illustrator 23.0.4, SVG Export Plug-In . SVG Version: 6.00 Build 0)  -->
<svg version="1.1" id="Capa_1" xmlns="http://www.w3.org/2000/svg" xmlns:xlink="http://www.w3.org/1999/xlink" x="0px" y="0px"
	 width="247.2px" height="69px" viewBox="0 0 247.2 69" style="enable-background:new 0 0 247.2 69;" xml:space="preserve">
<style type="text/css">
	.st0{fill:#575756;}
</style>
<path class="st0" d="M44,18.9c0-3-2.5-5.5-5.5-5.5c-3,0-5.5,2.5-5.5,5.5c0,3,2.5,5.5,5.5,5.5C41.6,24.4,44,21.9,44,18.9"/>
<path class="st0" d="M21.8,66.6c-17.7-7-26.4-27-19.4-44.7C9.4,4.1,29.5-4.6,47.1,2.4c17.7,7,26.4,27,19.4,44.7
	C59.6,64.8,39.5,73.5,21.8,66.6 M43.4,12C31,7.1,16.9,13.2,12,25.6C7.1,38,13.2,52.1,25.6,57C38,61.9,52.1,55.8,57,43.4
	C61.9,31,55.8,16.9,43.4,12"/>
<path class="st0" d="M63.8,9.4c-1.7-2.5-4.2-4.4-7.1-5.4c-0.6-0.2-1.2,0-1.5,0.5c-5.3,7.2-9.6,15.2-12.7,23.6
	c-2.7,7.3-6.7,14.1-11.8,20c-0.4,0.5-0.5,1.1-0.2,1.6c1.7,2.7,4.5,4.5,7.6,5c0.6,0.1,1.2-0.2,1.6-0.7c5.5-6.6,9.8-14.1,12.8-22.2
	c2.7-7.4,6.5-14.4,11.1-20.7C64.1,10.5,64.1,9.9,63.8,9.4"/>
<path class="st0" d="M10.9,61.7c13.1-7,23.4-18.2,29.2-31.9c0.2-0.6,0.1-1.2-0.3-1.7c-2.2-2.3-5.2-3.5-8.4-3.4c-0.6,0-1.1,0.4-1.4,1
	C25.2,37,16.7,46.3,5.9,52.1c-0.6,0.3-1,0.9-1,1.5c-0.1,3.2,1.5,6.3,4.2,8.1C9.7,62,10.3,62,10.9,61.7"/>
<path class="st0" d="M119.6,34.7c0.2-2.3,2.1-4,4.4-4h9.3c0.6,0,1.1-0.5,1.2-1.1c0.3-2.6,0.5-5.1,0.8-7.7c0.1-0.6-0.4-1.1-1-1.1H122
	c-7.8,0-14.4,5.9-15.2,13.7c-0.8,7.7-1.7,15.6-2.6,23.3c-0.1,0.6,0.3,1.2,0.9,1.3c3.5,0.8,7.1,0.8,10.6,0.2c0.6-0.2,1.1-0.6,1.2-1.3
	C117.9,50.4,118.7,42.5,119.6,34.7"/>
<path class="st0" d="M167.3,48c5.5-5.5,10.9-11.1,16.4-16.6c1.1-1.1,1.8-2.5,1.9-4.1c0.1-1.2,0.3-3.1,0.4-4.3
	c0.1-1.3-0.9-2.4-2.2-2.4h-31.1c-0.6,0-1.1,0.4-1.2,1.1c-0.4,2.5-0.8,5.1-1.2,7.6c-0.1,0.6,0.3,1.1,0.9,1.1h14.4
	c0.5,0,0.7,0.6,0.4,0.9c-5.6,5.9-11.3,11.8-16.9,17.7c-1,1.1-1.7,2.4-1.8,3.9c-0.1,1.2-0.3,2.6-0.4,3.8c-0.2,1.6,1.1,2.9,2.6,2.9
	h33.2c0.5,0,0.8-0.5,0.6-1c-1.5-2.9-2.9-5.8-4.4-8.8c-0.3-0.6-0.9-1-1.6-1h-9.5C167.3,48.9,167,48.3,167.3,48"/>
<path class="st0" d="M216.3,58c0.9-7.7,1.8-15.6,2.6-23.3c0.8-7.8,7.4-13.7,15.2-13.7h12.2c0.6,0,1,0.5,1,1.1
	c-0.2,2.6-0.5,5.1-0.8,7.7c-0.1,0.6-0.6,1.1-1.2,1.1H236c-2.3,0-4.2,1.7-4.4,4c-0.8,7.7-1.7,15.7-2.6,23.4c-0.1,0.6-0.6,1.2-1.2,1.3
	c-3.5,0.7-7.1,0.6-10.6-0.2C216.6,59.1,216.2,58.6,216.3,58"/>
<path class="st0" d="M105.4,14.5c-4.4-1.1-9-1.1-13.4-0.1c-0.6,0.1-1.1,0.7-1.1,1.3c-1.3,14-2.8,28-4.4,41.9
	c-0.1,0.6,0.3,1.2,0.9,1.3c4.4,1.1,9,1.1,13.5,0c0.6-0.2,1.1-0.7,1.2-1.4c1.6-13.9,3.1-27.8,4.4-41.8
	C106.4,15.3,106,14.7,105.4,14.5"/>
<path class="st0" d="M213.4,25.2c-2.5-2.7-6-4.3-9.6-4.3h-15.1c-0.6,0-1.1,0.5-1.2,1.1c-0.2,2.5-0.5,5-0.7,7.5
	c-0.1,0.6,0.4,1.1,1,1.1h14.1c0.8,0,1.5,0.3,2,0.9c0.5,0.6,0.8,1.3,0.7,2.1c0,0.4-0.1,0.8-0.1,1.3c-0.1,0.6-0.6,1.1-1.2,1.1
	c-3.8,0.1-7.7,0.3-11.5,0.4c-6.2,0.2-11.2,5.3-11.3,11.5c-0.1,6.2,4.6,11.4,10.8,11.9c5.7,0.4,11.5,0.4,17.2,0
	c3.2-0.2,5.8-2.7,6.2-5.9c0.7-6.1,1.4-12.5,2.1-18.6C217,31.6,215.8,28,213.4,25.2 M202.9,47.4c-0.1,1-1,1.8-2,1.8H195
	c-1,0-1.9-0.8-1.9-1.9c0-1,0.8-1.9,1.8-2c2.4-0.1,4.8-0.2,7.2-0.3c0.6,0,1,0.5,1,1C203,46.6,203,47,202.9,47.4"/>
<path class="st0" d="M149.5,22.1c0.1-0.6-0.4-1.2-1-1.3c-3.5-0.6-7.2-0.5-10.7,0.2c-0.6,0.1-1.1,0.7-1.1,1.3l-3.8,35.5
	c-0.1,0.6,0.3,1.2,0.9,1.3c3.5,0.8,7.1,0.8,10.6,0.2c0.6-0.2,1.1-0.6,1.2-1.3L149.5,22.1z"/>
</svg>
